<svg width="24" height="24" fill="none" xmlns="http://www.w3.org/2000/svg"><g opacity=".8" fill="#141414"><path d="M21.538 8.067a6.94 6.94 0 0 0-.447-2.359 4.91 4.91 0 0 0-2.807-2.803 7.053 7.053 0 0 0-2.33-.447c-1.026-.045-1.352-.058-3.955-.058-2.604 0-2.938 0-3.956.058a7.053 7.053 0 0 0-2.33.447 4.908 4.908 0 0 0-2.807 2.803 6.966 6.966 0 0 0-.446 2.326c-.046 1.025-.06 1.35-.06 3.949 0 2.6 0 2.931.06 3.949a7.01 7.01 0 0 0 .446 2.328 4.91 4.91 0 0 0 2.809 2.801 7.03 7.03 0 0 0 2.33.48c1.026.045 1.351.059 3.955.059s2.937 0 3.956-.06a7.039 7.039 0 0 0 2.33-.446 4.917 4.917 0 0 0 2.807-2.802 7 7 0 0 0 .447-2.328c.046-1.024.06-1.349.06-3.95-.002-2.599-.002-2.928-.062-3.947Zm-9.546 8.831a4.924 4.924 0 0 1-4.929-4.92 4.924 4.924 0 0 1 4.93-4.921 4.925 4.925 0 0 1 4.928 4.92 4.925 4.925 0 0 1-4.929 4.921Zm5.126-8.876a1.147 1.147 0 1 1 0-2.295 1.147 1.147 0 1 1 0 2.295Z"/><path d="M11.994 14.982a3.003 3.003 0 1 0 0-6.006 3.003 3.003 0 0 0 0 6.006Z"/></g></svg>