<svg width="20" height="20" fill="none" xmlns="http://www.w3.org/2000/svg"><g clip-path="url(#a)" stroke="#fff" stroke-linecap="round" stroke-linejoin="round"><path d="M7.5 18.333a.833.833 0 1 0 0-1.666.833.833 0 0 0 0 1.666Zm9.167 0a.833.833 0 1 0 0-1.666.833.833 0 0 0 0 1.666Z" fill="#fff" stroke-width="2"/><path d="M.833.833h3.334L6.4 11.992a1.667 1.667 0 0 0 1.667 1.341h8.1a1.666 1.666 0 0 0 1.666-1.341L19.167 5H5" stroke-width="1.6"/></g><defs><clipPath id="a"><path fill="#fff" d="M0 0h20v20H0z"/></clipPath></defs></svg>