<svg width="295" height="220" viewBox="0 0 544 318" fill="none" xmlns="http://www.w3.org/2000/svg"><path d="M18.468 158.587h64.385v49.707H18.468v-49.707Z" fill="#141414"/><path d="M7.37 158.587h58.896v49.707H7.37v-49.707Z" fill="#A1C487"/><path d="M7.21 208.491h59.295v-50.104H7.21v50.104Zm58.855-.397H7.57v-49.31h58.495v49.31Z" fill="#141414"/><path d="M27.563 158.587v12.398l3.686-2.027 2.845 1.907 3.405-1.907 3.125 2.027v-12.398h-13.06Zm13.062 24.394h13.582v.795H40.625v-.795Zm0 5.245h13.582v.795H40.625v-.795Zm0 5.248h13.582v.795H40.625v-.795Z" fill="#141414"/><path d="M14.662 181.907h21.996v13.629H14.663v-13.629Z" fill="#FEFEFE"/><path d="M14.462 195.697H36.86V181.67H14.462v14.027Zm21.996-.398H14.863v-13.231h21.595v13.231Z" fill="#141414"/><path d="M81.092 217.394H63.904c-.802 0-1.603.357-2.084.993l-8.694 10.848c-1.402 1.748-.16 4.291 2.084 4.291h25.882v-16.132Z" fill="#F27B79"/><path d="M55.21 233.723h26.082v-16.53H63.903c-.881 0-1.722.397-2.243 1.072l-8.694 10.848c-.681.874-.842 2.027-.32 3.02.44.954 1.441 1.59 2.563 1.59Zm25.681-.398H55.209a2.472 2.472 0 0 1-2.243-1.391c-.401-.874-.32-1.867.28-2.582l8.694-10.848a2.418 2.418 0 0 1 1.923-.914h16.988v15.735h.04Zm175.324-84.114c0 1.471-1.201 2.623-2.644 2.623h-8.654a2.63 2.63 0 0 1-2.644-2.623c0-1.47 1.202-2.622 2.644-2.622h8.654c1.443-.04 2.644 1.152 2.644 2.622Zm-32.653 3.096h10.657v14.981h-10.657v-14.981Z" fill="#141414"/><path d="M251.006 263.403V175.83c0-7.43-6.09-13.47-13.582-13.47H198.16c-7.492 0-13.582 6.04-13.582 13.47v80.659c0 6.835-5.569 12.358-12.46 12.358H161.1c-6.891 0-12.46-5.523-12.46-12.358v-35.243s.281-10.649 6.891-12.199h-67.87s-28.205 22.808-34.135 59.561v4.053h197.48v-9.258Z" fill="#A1C487"/><path d="M53.326 272.861h197.88v-97.03c0-7.549-6.17-13.668-13.782-13.668H198.16c-7.612 0-13.782 6.119-13.782 13.668v80.66c0 6.715-5.489 12.158-12.26 12.158H161.1c-6.771 0-12.259-5.443-12.259-12.158v-35.244c0-.119.32-10.49 6.771-11.999l1.682-.398H87.621l-.04.04c-.08.04-7.171 5.841-14.864 16.013-7.131 9.416-16.266 24.634-19.31 43.667l-.081 4.291Zm197.48-.397H53.726v-3.854c3.046-18.914 12.14-34.092 19.232-43.429 7.332-9.695 14.103-15.377 14.784-15.933h66.588c-5.57 2.423-5.85 11.562-5.89 11.999v35.244c0 6.914 5.689 12.556 12.66 12.556h11.018c6.972 0 12.661-5.642 12.661-12.556v-80.66c0-7.311 6.01-13.271 13.381-13.271h39.264c7.372 0 13.382 5.96 13.382 13.271v96.633Z" fill="#141414"/><path d="M224.243 162.319h4.808v88.05h-4.808v-88.05ZM0 206.902h91.67v4.529H0v-4.529Zm103.007 66.001h63.703v12.994h-63.703v-12.994Z" fill="#141414"/><path d="M80.05 311.486c-16.02 0-29.007-14.641-29.007-32.701 0-18.06 12.987-32.701 29.007-32.701 16.02 0 29.007 14.641 29.007 32.701 0 18.06-12.987 32.701-29.007 32.701Z" fill="#141414"/><path d="M75.162 298.606c-10.422 0-18.871-9.535-18.871-21.297s8.449-21.297 18.87-21.297c10.422 0 18.871 9.535 18.871 21.297s-8.449 21.297-18.87 21.297Z" fill="#FEFEFE"/><path d="M75.162 298.809c10.537 0 19.07-9.655 19.07-21.496 0-11.84-8.573-21.496-19.07-21.496s-19.071 9.656-19.071 21.496c0 11.841 8.534 21.496 19.07 21.496Zm0-42.594c10.296 0 18.67 9.456 18.67 21.098s-8.374 21.099-18.67 21.099c-10.297 0-18.67-9.457-18.67-21.099s8.373-21.098 18.67-21.098Z" fill="#141414"/><path d="M85.138 277.429c0 4.728-2.244 8.94-9.415 8.94-4.207 0-5.77-4.212-5.77-8.94 0-4.729 1.603-8.583 5.77-8.583 7.171 0 9.415 3.815 9.415 8.583Z" fill="#141414"/><path d="M75.242 286.011c-4.204 0-7.612-3.843-7.612-8.583s3.408-8.583 7.612-8.583c4.204 0 7.612 3.843 7.612 8.583s-3.408 8.583-7.612 8.583Z" fill="#FEFEFE"/><path d="M75.243 286.17c4.287 0 7.812-3.933 7.812-8.781 0-4.848-3.486-8.782-7.813-8.782s-7.812 3.934-7.812 8.782 3.526 8.781 7.813 8.781Zm0-17.125c4.086 0 7.412 3.774 7.412 8.384 0 4.609-3.326 8.384-7.412 8.384-4.087 0-7.412-3.775-7.412-8.384 0-4.61 3.325-8.384 7.412-8.384Zm168.232 42.441c-16.02 0-29.007-14.641-29.007-32.701 0-18.06 12.987-32.701 29.007-32.701 16.02 0 29.007 14.641 29.007 32.701 0 18.06-12.987 32.701-29.007 32.701Z" fill="#141414"/><path d="M238.586 298.606c-10.422 0-18.871-9.535-18.871-21.297s8.449-21.297 18.871-21.297c10.422 0 18.87 9.535 18.87 21.297s-8.448 21.297-18.87 21.297Z" fill="#FEFEFE"/><path d="M238.586 298.809c10.537 0 19.071-9.655 19.071-21.496 0-11.84-8.574-21.496-19.071-21.496-10.497 0-19.07 9.656-19.07 21.496 0 11.841 8.533 21.496 19.07 21.496Zm0-42.594c10.297 0 18.671 9.456 18.671 21.098s-8.374 21.099-18.671 21.099c-10.296 0-18.67-9.457-18.67-21.099s8.374-21.098 18.67-21.098Z" fill="#141414"/><path d="M248.562 277.429c0 4.728-2.243 8.583-9.415 8.583-4.207 0-5.769-3.855-5.769-8.583 0-4.729 1.603-8.583 5.769-8.583 7.172 0 9.415 3.815 9.415 8.583Z" fill="#141414"/><path d="M238.666 286.011c-4.204 0-7.612-3.842-7.612-8.582 0-4.741 3.408-8.583 7.612-8.583 4.204 0 7.612 3.842 7.612 8.583 0 4.74-3.408 8.582-7.612 8.582Z" fill="#FEFEFE"/><path d="M238.666 286.171c4.287 0 7.813-3.934 7.813-8.782s-3.486-8.781-7.813-8.781-7.813 3.933-7.813 8.781c0 4.848 3.526 8.782 7.813 8.782Zm0-17.126c4.086 0 7.412 3.775 7.412 8.384s-3.326 8.384-7.412 8.384c-4.087 0-7.412-3.775-7.412-8.384s3.365-8.384 7.412-8.384Zm-211.942-.315h3.686c.481-3.774 3.726-6.675 7.652-6.675h81.893v15.338H38.063c-3.727 0-6.852-2.623-7.573-6.119h-3.766v-2.544Z" fill="#141414"/><path d="M41.267 272.662s-5.088-40.449 42.55-51.456c17.187-3.973 56.651-6.556 47.797 51.456H41.267Z" fill="#A1C487"/><path d="M41.066 272.862h90.667l.04-.159c3.286-21.576.2-36.913-9.175-45.495-11.458-10.53-29.287-8.384-38.863-6.159-10.897 2.503-19.912 6.794-26.843 12.715-5.529 4.728-9.736 10.529-12.46 17.244-4.648 11.404-3.446 21.576-3.406 21.695l.04.159Zm90.347-.398H41.427c-.12-1.39-.881-10.847 3.406-21.337 4.246-10.41 14.463-24.039 38.983-29.72 9.495-2.186 27.164-4.331 38.502 6.079 9.295 8.503 12.34 23.641 9.095 44.978Zm19.631-61.031H91.307c-6.21 0-11.258-5.006-11.258-11.165 0-6.516 5.609-11.642 12.14-11.125l59.536 4.688c4.607.358 8.173 4.172 8.173 8.781 0 4.848-3.966 8.821-8.854 8.821Z" fill="#141414"/><path d="M212.264 268.174h68.271s-1.122-9.973-7.893-19.033c-14.824-19.668-45.634-16.966-56.532 5.046-1.963 3.894-3.325 8.503-3.846 13.987Z" fill="#A1C487"/><path d="M212.023 268.368h68.712l-.04-.239c0-.119-1.202-10.132-7.933-19.111-7.012-9.338-18.23-14.265-30.009-13.192-11.699 1.073-21.715 7.907-26.883 18.277-2.044 4.172-3.366 8.861-3.847 14.026v.239Zm68.271-.397h-67.79c.481-5.007 1.763-9.616 3.766-13.669 5.088-10.251 14.984-17.006 26.563-18.039 11.619-1.073 22.717 3.814 29.648 13.033 6.09 8.145 7.572 17.165 7.813 18.675Z" fill="#141414"/><path d="M40.786 275.284h175.605v-5.245h64.063v-4.768h-64.183c-2.605 0-4.688 2.106-4.688 4.649v.596H40.786v4.768Zm123.2 25.707h11.739v-4.768h-10.096l-22.597-17.086-2.885 3.775 23.839 18.079Z" fill="#141414"/><path d="M223.201 157.276h14.624c.881 0 1.763-.119 2.564-.318 4.648-1.152 8.093-5.324 8.093-10.291 0-2.94-1.202-5.562-3.125-7.47a10.617 10.617 0 0 0-4.968-2.781 11.106 11.106 0 0 0-2.604-.318h-2.123c-7.332 0-14.344 3.616-18.15 9.854-.2.318-.4.676-.601 1.033-2.444 4.689.962 10.291 6.29 10.291Z" fill="#A1C487"/><path d="M223.202 157.474h14.623c.882 0 1.763-.119 2.645-.318 4.847-1.192 8.253-5.483 8.253-10.49 0-2.9-1.122-5.602-3.205-7.629a11.068 11.068 0 0 0-5.048-2.86 12.01 12.01 0 0 0-2.645-.318h-2.123c-7.532 0-14.544 3.814-18.31 9.973-.2.357-.401.675-.601 1.033-1.202 2.225-1.162 4.887.16 7.072 1.363 2.226 3.686 3.537 6.251 3.537Zm14.623-21.178c.842 0 1.723.119 2.524.318a10.333 10.333 0 0 1 4.888 2.741c1.963 1.947 3.085 4.57 3.085 7.351 0 4.808-3.285 8.94-7.933 10.092-.841.199-1.682.318-2.524.318h-14.623c-2.444 0-4.648-1.232-5.89-3.337-1.242-2.067-1.322-4.57-.16-6.676.2-.357.4-.675.601-1.033 3.686-6.039 10.577-9.774 17.949-9.774h2.083Z" fill="#141414"/><path d="M233.058 146.707c0 4.212 1.843 7.986 4.767 10.609h.04c5.89 0 10.698-4.729 10.698-10.609 0-2.94-1.202-5.563-3.125-7.47a10.71 10.71 0 0 0-7.532-3.099h-.041c-3.004 2.582-4.807 6.357-4.807 10.569Z" fill="#141414"/><path d="M235.981 146.705c0 4.053 1.683 7.669 4.408 10.291 4.647-1.152 8.093-5.324 8.093-10.291 0-2.941-1.202-5.563-3.125-7.47a10.618 10.618 0 0 0-4.968-2.782c-2.725 2.543-4.408 6.199-4.408 10.252Z" fill="#FEFEFE"/><path d="m240.352 157.197.12-.04c4.848-1.192 8.253-5.483 8.253-10.49 0-2.9-1.121-5.602-3.205-7.629a11.073 11.073 0 0 0-5.048-2.861l-.12-.039-.08.079c-2.885 2.742-4.488 6.437-4.488 10.41 0 3.974 1.603 7.669 4.488 10.411l.08.159Zm.12-20.543a10.585 10.585 0 0 1 4.768 2.702c1.963 1.947 3.085 4.569 3.085 7.351 0 4.768-3.206 8.86-7.853 10.052-2.765-2.662-4.287-6.238-4.287-10.052 0-3.854 1.522-7.391 4.287-10.053Z" fill="#141414"/><path d="M208.819 147.621h7.893v3.219h-7.893v-3.219Z" fill="#A1C487"/><path d="M208.658 151.078h8.293v-3.616h-8.293v3.616Zm7.853-.397h-7.493v-2.821h7.493v2.821Z" fill="#141414"/><path d="M219.675 146.549h-3.165a2.63 2.63 0 0 0-2.644 2.623c0 1.47 1.202 2.622 2.644 2.622h3.165a2.63 2.63 0 0 0 2.645-2.622 2.631 2.631 0 0 0-2.645-2.623Zm-9.335 2.662c0 1.471-1.202 2.623-2.644 2.623h-8.654a2.63 2.63 0 0 1-2.644-2.623c0-1.47 1.202-2.622 2.644-2.622h8.654c1.442-.04 2.644 1.152 2.644 2.622Z" fill="#141414"/><path d="M67.349 262.49h39.103v2.225H67.349v-2.225Z" fill="#fff"/><path d="M67.149 264.917h39.504v-2.623H67.149v2.623Zm39.103-.398H67.549v-1.827h38.703v1.827Z" fill="#141414"/><path d="M67.349 256.612h39.103v2.225H67.349v-2.225Z" fill="#fff"/><path d="M67.149 259.032h39.504v-2.622H67.149v2.622Zm39.103-.397H67.549v-1.828h38.703v1.828Z" fill="#141414"/><path d="M67.349 250.767h39.103v2.225H67.349v-2.225Z" fill="#fff"/><path d="M67.149 253.196h39.504v-2.623H67.149v2.623Zm39.103-.397H67.549v-1.828h38.703v1.828Zm20.633 48.152h82.133v.796h-82.133v-.796Zm159.985 16.434H544v.616H286.87v-.616Zm58.58-.085h31.328s-1.977-6.691-15.858-12.189l.043-1.534.129-8.311h-14.826l-.258 7.33-.558 14.704Z" fill="#141414"/><path d="M345.192 317.516h31.844l-.086-.256c-.086-.255-2.149-6.819-15.857-12.274l.129-9.888h-15.256l-.774 22.418Zm31.285-.426h-30.812l.773-21.608h14.397l-.129 9.76.129.042c12.033 4.816 15.084 10.527 15.642 11.806Zm-71.852.21h31.328s-1.977-6.692-15.857-12.189l.129-1.023 1.203-8.822h-14.826l-.688 7.671-1.289 14.363Z" fill="#141414"/><path d="M304.368 317.515h31.887l-.086-.255c-.086-.256-2.149-6.819-15.858-12.275l1.332-9.93h-15.255l-2.02 22.46Zm31.285-.426H304.84l1.934-21.608h14.397l-1.333 9.76.172.043c12.076 4.816 15.084 10.527 15.643 11.805Zm154.019.211H521l-2.019-15.556-.817-6.478h-14.826l1.762 7.969.43 3.58c-14.569 4.433-15.858 10.485-15.858 10.485Z" fill="#141414"/><path d="M489.415 317.515h31.844l-2.88-22.46h-15.298l1.847 8.226.387 3.367c-14.353 4.389-15.814 10.356-15.857 10.612l-.043.255Zm31.371-.426h-30.812c.472-1.193 3.094-6.265 15.642-10.058l.172-.043-.43-3.75-1.719-7.714h14.354l2.793 21.565Zm-67.212.211h31.328l-.774-15.301-.344-6.733h-14.826l.387 8.182.086 2.899c-13.881 5.54-15.857 10.953-15.857 10.953Z" fill="#141414"/><path d="M453.272 317.515h31.887l-1.16-22.46h-15.256l.43 8.439.086 2.77c-13.709 5.455-15.772 10.783-15.858 10.996l-.129.255Zm31.414-.426h-30.769c.644-1.193 3.825-5.839 15.6-10.527l.128-.042-.085-3.069-.387-7.97h14.396l1.117 21.608Z" fill="#141414"/><path d="m370.074 11.978-21.788-4.859-2.363 8.226c-.602-.427-1.203-.682-1.762-.682-2.579 0-3.094 3.068-3.094 3.068-.731 3.324 1.461 5.37 2.449 6.82l-7.477 23.738 18.522 2.855 1.59-15.172c15.943 7.97 13.923-23.994 13.923-23.994Z" fill="#FFAC71"/><path d="m354.776 51.315 1.59-15.087c3.137 1.492 5.845 1.577 7.993.17 7.134-4.688 6.017-23.653 5.974-24.463v-.17L348.158 6.82l-2.32 8.097c-.559-.383-1.118-.554-1.633-.554-2.708 0-3.31 3.197-3.31 3.24-.644 2.898.86 4.815 1.934 6.222.172.213.344.426.473.64l-7.52 23.866 18.994 2.983Zm1.203-15.726-1.589 15.257-18.05-2.813 7.435-23.568-.043-.085c-.172-.213-.344-.469-.559-.725-1.031-1.364-2.449-3.196-1.848-5.881.043-.128.516-2.898 2.88-2.898.515 0 1.074.213 1.633.64l.257.17 2.407-8.311 21.444 4.773c.086 1.875.817 19.605-5.801 23.91-2.063 1.363-4.727 1.235-7.822-.299l-.344-.17Z" fill="#141414"/><path d="M376.606 2.688c-.988-.213-3.481 0-4.985 1.236l.258-.512c2.235-6.649-7.176-1.705-12.161-.724-1.032.213-3.31.511-3.31.511-14.912-3.367-13.407 11.72-13.407 11.72 3.91-.553 5.07 4.732 5.07 4.732 3.997-1.876 5.243-4.56 5.372-5.711 3.868 1.747 13.795 5.071 22.003-.81 5.63-4.05 3.653-9.974 1.16-10.442Zm86.55 63.206s6.06-11.21 6.576-16.792l-2.536-12.274s-.301-11.763 15.299-8.908c0 0-.086-5.54 3.61-6.861 0 0-1.805 3.11-1.161 6.18 0 0 3.009-6.82 8.681-3.24 0 0 4.384 2.387 3.223 6.734 0 0 .086 4.944-6.747 5.03 0 0 .086 6.179 15.17 14.575 0 0 12.549 5.966 11.517 18.965-1.031 12.999-12.72 21.182-12.72 21.182l-42.974.043 2.062-24.634Z" fill="#141414"/><path d="m487.007 70.667-1.848-21.438s3.223-1.875 2.407-5.54c0 0-.774-2.94-3.739-.682l-.086-5.2s-10.4 3.879-16.459-1.96c0 0-4.383 20.287 4.856 20.244l-1.977 17.048 16.846-2.472Z" fill="#FFAC71"/><path d="m469.947 73.395 17.318-2.515-1.848-21.522c.602-.384 3.137-2.302 2.407-5.711 0-.043-.344-1.279-1.375-1.62-.688-.213-1.461-.042-2.364.554l-.086-5.071-.301.085c-.086.043-10.314 3.75-16.244-1.918l-.258-.256-.086.384c-.129.554-2.922 13.766 1.118 18.667.945 1.15 2.191 1.747 3.695 1.79l-1.976 17.133Zm16.845-2.898-16.33 2.386 1.977-17.004h-.258c-1.504 0-2.707-.555-3.61-1.663-3.524-4.304-1.504-15.726-1.074-17.942 5.544 4.944 14.396 2.386 16.115 1.832l.086 5.328.344-.256c.903-.682 1.676-.938 2.278-.724.816.255 1.117 1.32 1.117 1.32.774 3.495-2.192 5.243-2.321 5.328l-.128.085v.128l1.804 21.182ZM345.966 302.639l14.955.937.129-8.311h-14.826l-.258 7.374Zm-40.052.298 14.31 1.151 1.203-8.823h-14.826l-.687 7.672Z" fill="#141414"/><path d="m327.272 123.767.602 3.239 3.653 19.989 9.454 51.398.559 16.962 2.879 84.983h25.011l2.794-101.433-3.954-56.556-1.332-18.582h-39.666Z" fill="#CDCBCC"/><path d="M344.204 300.552h25.441v-.213l2.793-101.433-5.286-75.351h-40.138l13.752 74.882 3.438 102.115Zm25.011-.426h-24.624l-3.438-101.732-13.666-74.412h39.192l5.329 74.966-2.793 101.178Zm134.122-4.861 1.805 7.97 13.881-1.491-.86-6.479h-14.826Zm-34.38 0 .387 8.226 14.783-1.492-.344-6.734h-14.826Z" fill="#141414"/><path d="M301.832 300.767h25.269l14.439-85.409 3.224-19.136 5.5-49.353 2.192-19.86h-41.04l.172 15.684.601 51.739-10.357 106.335Z" fill="#CDCBCC"/><path d="M301.617 300.977h25.699l.043-.171 17.662-104.544 7.735-69.469h-41.513l.774 67.636-10.4 106.548Zm25.312-.427H302.09l10.314-106.078-.774-67.253h40.611l-7.693 68.958-17.619 104.373Zm130.082-114.645 6.617 114.432h22.863l-.774-72.537-.472-41.383 3.309-38.358 1.289-15.3-19.167-.298-10.829-.213-.903 17.175-1.933 36.482Z" fill="#141414"/><path d="M463.457 300.554h23.249v-.213L485.46 186.42l4.641-53.87-30.426-.512-2.879 53.871 6.661 114.645Zm22.819-.426h-22.432l-6.618-114.219 2.836-53.444 29.566.511-4.598 53.444 1.246 113.708ZM311.415 127.01l.172 15.684c7.134 2.344 13.838 3.708 19.94 4.304 7.005.725 13.322.512 18.737-.17 8.122-.98 14.31-3.026 17.963-4.518l-1.289-18.581h-39.665l.601 3.239h-16.459v.042Z" fill="#141414"/><path d="m470.419 130.672.258 1.79 2.449 17.687 6.489 46.625 6.102 31.027 14.096 71.855 20.928.427-9.626-105.568-2.664-55.148-.473-9.718-37.559 1.023Z" fill="#141414"/><path d="M521 300.297v-.255l-9.626-105.568-3.18-65.079-37.989 1.023 9.196 66.4 20.241 103.053 21.358.426Zm-13.236-170.433 3.137 64.653 9.627 105.311-20.542-.426-20.155-102.712-9.153-65.846 37.086-.98Z" fill="#141414"/><path d="M461.653 68.959 444.979 90.48 421.687 95v16.621l27.289-2.557c1.89-.17 3.652-.852 5.2-1.918l10.915-7.671-3.438-30.515Z" fill="#CDCBCC"/><path d="m421.472 111.877 27.546-2.599a11.115 11.115 0 0 0 5.329-1.961l11.044-7.757-3.523-31.154-16.975 21.863-23.378 4.56v17.048h-.043Zm43.447-12.487-10.83 7.629a10.495 10.495 0 0 1-5.114 1.875l-27.074 2.557V95.213l23.207-4.517.043-.043 16.373-21.096 3.395 29.833Z" fill="#141414"/><path d="M355.634 45.693s-3.223 7.543-17.705-7.33L313.09 47.44a11.352 11.352 0 0 0-6.661 8.481l-3.911 21.906h13.58l-6.274 58.559s18.307 4.816 32.317 5.114c23.12.512 28.234-3.58 28.234-3.58l-1.032-20.798-.172-47.307c.258-6.734-2.578-11.805-6.618-17.26l-6.919-6.862Z" fill="#A1C487"/><path d="M346.009 141.756c19.639 0 24.281-3.538 24.452-3.665l.086-.086-1.031-20.926-.172-47.307c.258-6.606-2.492-11.763-6.661-17.388l-7.134-7.075-.129.298c-.043.043-.644 1.364-2.449 1.705-2.364.426-6.833-.81-14.912-9.12l-.086-.086-.129.043-24.839 9.078c-3.61 1.577-6.145 4.816-6.79 8.652l-3.954 22.161h13.58l-6.274 58.516.172.043c.172.042 18.479 4.816 32.359 5.157h3.911Zm24.108-3.964c-.773.512-6.832 3.964-28.019 3.495-13.064-.298-30.124-4.603-32.058-5.072l6.274-58.643h-13.537l3.868-21.65c.644-3.709 3.051-6.82 6.532-8.311l24.71-8.993c8.165 8.353 12.806 9.59 15.213 9.12 1.547-.298 2.32-1.236 2.621-1.704l6.704 6.605c4.212 5.711 6.79 10.613 6.532 17.133l.172 47.307.988 20.713Zm.344-70.11h68.544v52.933h-68.544V67.682Z" fill="#141414"/><path d="M358.643 67.681h62.699v52.933h-62.699V67.681Z" fill="#FEFEFE"/><path d="M358.428 120.826h63.13v-53.36h-63.13v53.36Zm62.7-.427h-62.27V67.893h62.27v52.506Z" fill="#141414"/><path d="M380.13 67.682v13.212l3.911-2.131 3.008 2.003 3.61-2.003 3.352 2.131V67.682H380.13Zm13.838 25.998h14.482v.853h-14.482v-.853Zm0 5.584h14.482v.853h-14.482v-.853Zm0 5.58h14.482v.853h-14.482v-.853Z" fill="#141414"/><path d="M366.378 92.529h23.421v14.491h-23.421V92.529Z" fill="#FEFEFE"/><path d="M366.164 107.23h23.851V92.313h-23.851v14.917Zm23.421-.426h-22.991V92.739h22.991v14.065Zm69.361 42.621c3.609.511 8.551.938 14.181.724 4.727-.17 9.97-.767 15.385-2.088 6.575-1.62 13.408-4.347 19.897-8.695l-.473-9.717-37.516 1.023.257 1.79-10.829-.171-.902 17.134Z" fill="#141414"/><path d="M421.471 122.361c.387.64.903 1.151 1.504 1.577.602.426 1.29.725 2.02.853l3.395.767c2.192.469 4.426.724 6.661.724h2.965c.86 0 1.719-.213 2.45-.639l3.18-1.747 3.352-.384 12.463-1.492v-9.504l-10.486 1.619-4.856.768-10.529-2.899s-1.848 3.794 3.911 5.712l-5.587 2.727h-9.368c-.989-.085-1.633 1.066-1.075 1.918Z" fill="#E78D4C"/><path d="M435.095 126.457h2.965c.902 0 1.805-.213 2.578-.682l3.137-1.705 15.944-1.918v-9.93l-15.557 2.429-10.658-2.941-.085.171c-.043.042-.688 1.406 0 2.941.515 1.236 1.718 2.216 3.566 2.898l-5.071 2.472h-9.325c-.559 0-1.074.298-1.332.767a1.51 1.51 0 0 0 .043 1.534c.429.64.945 1.194 1.547 1.62a6.327 6.327 0 0 0 2.063.895l3.395.767c2.277.469 4.512.682 6.79.682Zm24.194-4.646-15.686 1.876-3.18 1.747a5.107 5.107 0 0 1-2.363.597h-2.965c-2.235 0-4.47-.256-6.618-.725l-3.395-.767c-.688-.17-1.333-.426-1.934-.852a5.4 5.4 0 0 1-1.462-1.492 1.135 1.135 0 0 1-.042-1.108c.172-.341.558-.554.945-.554H432l6.103-2.984-.516-.17c-1.977-.64-3.266-1.62-3.782-2.813-.472-1.066-.215-2.046-.043-2.43l10.4 2.856 15.127-2.344v9.163ZM379.357 35.12h42.502v32.816h-42.502V35.12Z" fill="#141414"/><path d="M372.052 35.119h38.849v32.817h-38.849V35.119Z" fill="#A1C487"/><path d="M371.836 68.153h39.279V34.91h-39.279v33.243Zm38.849-.426h-38.419v-32.39h38.419v32.39Z" fill="#141414"/><path d="M385.331 35.119v8.183l2.45-1.321 1.891 1.236 2.234-1.236 2.063 1.32V35.12h-8.638Zm8.594 15.946h8.981v.852h-8.981v-.852Zm0 3.445h8.981v.853h-8.981v-.853Zm0 3.497h8.981v.852h-8.981v-.852Z" fill="#141414"/><path d="M376.822 50.508h14.526V59.5h-14.526v-8.993Z" fill="#FEFEFE"/><path d="M376.606 59.71h14.955v-9.42h-14.955v9.42Zm14.525-.426h-14.095v-8.567h14.095v8.567Zm55.911 64.188 12.463-1.492v-9.505l-10.486 1.62-1.977 9.377Z" fill="#141414"/><path d="m450.822 113.157 7.865-1.491 1.289-38.272a8.617 8.617 0 0 1 3.094-6.308l8.036-6.648s1.547 9.76 16.545 0l13.881 4.944c3.911 1.406 6.876 4.688 7.821 8.694l8.767 42.235c.816 3.921-2.106 7.629-6.145 7.757l-4.169.128 2.02 13.467s-14.311 6.095-29.008 6.99c-16.932 1.065-22.475-2.941-22.26-3.495l.859-14.32-8.595.341v-14.022Z" fill="#CDCBCC"/><path d="M475.319 145.12a85.7 85.7 0 0 0 5.501-.17c14.568-.895 28.921-6.947 29.093-7.033l.172-.085-.043-.17-1.977-13.212 3.954-.128c1.977-.085 3.825-.98 5.071-2.557a6.414 6.414 0 0 0 1.289-5.455l-8.767-42.236c-.988-4.134-3.953-7.416-7.993-8.865l-13.967-4.986-.085.043c-5.802 3.793-10.4 5.114-13.322 3.835-2.45-1.065-2.88-3.665-2.88-3.665l-.043-.383-8.294 6.904a8.84 8.84 0 0 0-3.18 6.478l-1.289 38.101-7.864 1.492v14.49l8.594-.341-.859 14.065c-.043.128 0 .213.086.341.516.809 5.028 3.537 16.803 3.537Zm34.25-7.544c-1.59.64-15.084 6.052-28.792 6.905-16.202 1.023-21.745-2.643-22.003-3.239v-.043l.859-14.576-8.637.341v-13.68l7.864-1.492 1.289-38.442c.086-2.387 1.203-4.603 3.008-6.137l7.736-6.436c.214.81.945 2.728 3.051 3.623 3.094 1.363 7.649.085 13.666-3.794l13.794 4.902a11.955 11.955 0 0 1 7.693 8.566l8.766 42.236c.387 1.79-.086 3.665-1.203 5.114a6.409 6.409 0 0 1-4.727 2.387l-4.426.127 2.062 13.638Z" fill="#141414"/><path d="m507.77 123.953.025.428-48.741 2.776-.025-.428 48.741-2.776Zm-49.255-12.079 37.087-7.586-3.352-18.326-.43.085 3.309 17.9-36.7 7.543.086.384Z" fill="#141414"/><path d="M300.499 104.76c-.387 4.305 2.321 8.311 6.489 9.59l43.92 13.553 4.168 1.449a10.99 10.99 0 0 0 4.985.511l8.423-1.023a9.112 9.112 0 0 0 1.547-.383l9.841-3.58c1.247-.469 2.364-1.322 3.095-2.43l.129-.213c.515-.767-.043-1.79-.989-1.79h-15.814c4.598-2.898 4.254-5.455 4.254-5.455l-9.712 1.321-7.091.853-33.477-16.196 3.868-19.135.773-3.879h-22.26l-.215 2.259-1.934 24.548Z" fill="#FFAC71"/><path d="M358.729 130.161c.473 0 .946-.042 1.376-.085l8.423-1.023a8.625 8.625 0 0 0 1.59-.384l9.841-3.58a6.16 6.16 0 0 0 3.18-2.514l.129-.213c.301-.426.301-.98.043-1.407-.258-.468-.688-.724-1.246-.724h-15.084c4.039-2.77 3.781-5.157 3.738-5.285l-.043-.213-9.927 1.321-7.047.81-33.262-16.067 4.684-23.142h-22.691l-2.32 27.063c-.387 4.432 2.363 8.481 6.661 9.802l43.919 13.553 4.169 1.449c1.332.426 2.621.639 3.867.639Zm23.464-9.504c.344 0 .688.171.86.512a.902.902 0 0 1-.043.98l-.129.213a6.406 6.406 0 0 1-2.965 2.344l-9.841 3.58c-.473.17-.989.298-1.504.383l-8.423 1.023a10.623 10.623 0 0 1-4.899-.511l-4.169-1.449-43.92-13.553c-4.082-1.279-6.704-5.114-6.36-9.376l2.278-26.68h21.788l-4.641 22.929.129.086 33.519 16.195 7.177-.853 9.454-1.278c-.042.639-.515 2.727-4.168 5.029l-.602.383h16.459v.043Z" fill="#141414"/><path d="m326.962 68.716.418.1-2.376 9.822-.418-.1 2.376-9.822Z" fill="#141414"/><path d="m302.606 80.127 21.616 1.662.816-3.921h-22.26l-.172 2.259Zm115.788 111.982a8.624 8.624 0 0 0-6.083 2.497 8.483 8.483 0 0 0-2.521 6.032 8.497 8.497 0 0 0-2.519-6.033 8.637 8.637 0 0 0-6.082-2.499 8.637 8.637 0 0 0 6.082-2.499 8.497 8.497 0 0 0 2.519-6.033c0 2.263.906 4.433 2.519 6.033a8.637 8.637 0 0 0 6.082 2.499l.003.003Z" fill="#141414"/><path d="M441.178 246.025c1.938 0 3.509-1.558 3.509-3.48 0-1.923-1.571-3.481-3.509-3.481s-3.509 1.558-3.509 3.481c0 1.922 1.571 3.48 3.509 3.48Zm-143.977-39.658c1.938 0 3.509-1.558 3.509-3.48 0-1.923-1.571-3.481-3.509-3.481-1.937 0-3.508 1.558-3.508 3.481 0 1.922 1.571 3.48 3.508 3.48Zm119.887-56.762c2.476 0 4.484-1.991 4.484-4.447s-2.008-4.448-4.484-4.448-4.483 1.992-4.483 4.448c0 2.456 2.007 4.447 4.483 4.447Z" fill="#A1C487"/><path d="M171.48 242.325c-1.87 0-3.664.737-4.987 2.049a6.969 6.969 0 0 0-2.065 4.947 6.966 6.966 0 0 0-2.066-4.947 7.08 7.08 0 0 0-4.987-2.049 7.08 7.08 0 0 0 4.987-2.05 6.966 6.966 0 0 0 2.066-4.947c0 1.856.743 3.635 2.065 4.947a7.084 7.084 0 0 0 4.987 2.05Z" fill="#141414"/><path d="M212.719 237.733a2.33 2.33 0 0 0 2.34-2.321 2.33 2.33 0 0 0-2.34-2.322 2.33 2.33 0 0 0-2.34 2.322 2.33 2.33 0 0 0 2.34 2.321Z" fill="#A1C487"/><path d="M278.954 120.94a8.654 8.654 0 0 0-6.082 2.497 8.538 8.538 0 0 0-1.866 2.768 8.474 8.474 0 0 0-.655 3.265 8.502 8.502 0 0 0-2.52-6.034 8.635 8.635 0 0 0-6.081-2.499 8.635 8.635 0 0 0 6.081-2.499 8.498 8.498 0 0 0 2.52-6.033c0 2.263.906 4.433 2.519 6.033a8.636 8.636 0 0 0 6.082 2.499l.002.003Z" fill="#141414"/><path d="M267.047 67.058h.015a8.337 8.337 0 0 1 3.246.549 8.27 8.27 0 0 1 2.772 1.76 8.182 8.182 0 0 1 2.515 5.889 8.182 8.182 0 0 1-2.515 5.889 8.27 8.27 0 0 1-2.772 1.76 8.337 8.337 0 0 1-3.246.549h-35.765a6.501 6.501 0 0 1-2.963-.695 6.442 6.442 0 0 1-2.313-1.961 6.356 6.356 0 0 1-.883-5.796 6.407 6.407 0 0 1 1.624-2.55l-.346-.361.346.36a6.477 6.477 0 0 1 2.624-1.53 6.512 6.512 0 0 1 5.821 1.06l.977.748-.179-1.218a13.904 13.904 0 0 1 2.587-10.293 14.128 14.128 0 0 1 9.131-5.534 14.2 14.2 0 0 1 10.422 2.414 13.977 13.977 0 0 1 5.712 8.97l.1.564.546-.175a8.323 8.323 0 0 1 2.544-.399Z" fill="#fff" stroke="#141414"/><path d="M274.967 317.11a2.332 2.332 0 0 0 2.341-2.322 2.33 2.33 0 0 0-2.341-2.321 2.33 2.33 0 0 0-2.34 2.321 2.332 2.332 0 0 0 2.34 2.322Z" fill="#A1C487"/></svg>